<?xml version="1.0" encoding="utf-8"?>
<!-- Generator: Adobe Illustrator 16.0.0, SVG Export Plug-In . SVG Version: 6.00 Build 0)  -->
<!DOCTYPE svg PUBLIC "-//W3C//DTD SVG 1.1//EN" "http://www.w3.org/Graphics/SVG/1.1/DTD/svg11.dtd">
<svg version="1.1" id="phone" xmlns="http://www.w3.org/2000/svg" xmlns:xlink="http://www.w3.org/1999/xlink" x="0px" y="0px"
	 width="31px" height="31px" viewBox="0 0 31 31" enable-background="new 0 0 31 31" xml:space="preserve">
<linearGradient id="SVGID_1_" gradientUnits="userSpaceOnUse" x1="0" y1="15.5005" x2="31" y2="15.5005">
	<stop  offset="0" style="stop-color:#007BB5"/>
	<stop  offset="1" style="stop-color:#57C7FF"/>
</linearGradient>
<circle opacity="0.65" fill="url(#SVGID_1_)" cx="15.5" cy="15.5" r="15.5"/>
<path fill="#FFFFFF" d="M15.5,29.651c-7.802,0-14.15-6.349-14.15-14.151c0-7.802,6.348-14.15,14.15-14.15S29.65,7.698,29.65,15.5
	C29.65,23.303,23.302,29.651,15.5,29.651z M15.5,2.65C8.415,2.65,2.65,8.415,2.65,15.5c0,7.086,5.765,12.851,12.85,12.851
	S28.35,22.586,28.35,15.5C28.35,8.415,22.585,2.65,15.5,2.65z"/>
<polygon fill="#FFFFFF" points="12,8 12,22 23,15 "/>
</svg>
